<?xml version="1.0" encoding="UTF-8"?> <svg xmlns="http://www.w3.org/2000/svg" viewBox="0 0 24 24"><g fill="#5F6C59"><path d="M12 20.25c-4.56 0-8.25-3.7-8.25-8.25 0-4.56 3.69-8.25 8.25-8.25 4.55 0 8.25 3.69 8.25 8.25 0 .41.33.75.75.75 .41 0 .75-.34.75-.75 0-5.39-4.37-9.75-9.75-9.75 -5.39 0-9.75 4.36-9.75 9.75 0 5.38 4.36 9.75 9.75 9.75 .41 0 .75-.34.75-.75 0-.42-.34-.75-.75-.75Z"></path><path d="M3.51 9.75h16.87c.41 0 .75-.34.75-.75 0-.42-.34-.75-.75-.75H3.51c-.42 0-.75.33-.75.75 0 .41.33.75.75.75Z"></path><path d="M3.51 15.75H12c.41 0 .75-.34.75-.75 0-.42-.34-.75-.75-.75H3.51c-.42 0-.75.33-.75.75 0 .41.33.75.75.75Z"></path><path d="M16.75 12c0-2.95-.79-5.84-2.28-8.33 -1.14-1.9-3.82-1.9-4.96-.01 -3.04 5.06-3.04 11.58 0 16.65 .54.9 1.47 1.42 2.47 1.42 .41 0 .75-.34.75-.75 0-.42-.34-.75-.75-.75 -.48 0-.93-.25-1.19-.7 -2.75-4.59-2.75-10.53 0-15.12 .55-.93 1.82-.93 2.37 0 1.35 2.25 2.06 4.88 2.06 7.55 0 .41.33.75.75.75 .41 0 .75-.34.75-.75Z"></path><path d="M18.71 16.84l-1.56 1.55 1.06 0 -.94-.94c-.3-.3-.77-.3-1.07-.01 -.3.29-.3.76-.01 1.06l.93.93c.29.29.76.29 1.06 0l1.55-1.56c.29-.3.29-.77 0-1.07 -.3-.3-.77-.3-1.07 0Z"></path><path d="M13.62 19.1l.53.69 -.15-.36 .11.86c.1.81.74 1.45 1.56 1.56l.86.11 -.36-.15 .69.53c.65.49 1.56.49 2.21-.01l.69-.54c.57-.44.26-1.35-.46-1.35h-.01v.75l.09.74 .86-.12c.81-.11 1.45-.75 1.56-1.57l.11-.87 -.75-.1h-.75l1.23.57c.08-.09.08-.09.09-.1 0-.02 0-.02.01-.02 0-.01 0-.01 0-.01 0-.01 0-.01.01-.02 .01-.02.01-.02.03-.05 .05-.07.05-.07.12-.16 .16-.22.16-.22.36-.48 .49-.66.49-1.57-.01-2.22l-.54-.7 .14.35 -.12-.87c-.11-.82-.75-1.46-1.57-1.57l-.87-.12 .35.14 -.7-.53c-.66-.5-1.57-.5-2.22 0l-.7.52c-.58.43-.27 1.34.45 1.34h0v-.75l-.1-.75 -.87.11c-.82.1-1.46.74-1.57 1.56l-.12.86 .74.09h.75l-1.24-.58c-.09.08-.09.08-.1.09 -.01.01-.01.01-.02.01s-.01 0-.01 0c-.01 0-.01 0-.02.01 -.02.01-.02.01-.04.04 -.06.06-.06.06-.13.15 -.17.21-.17.21-.37.47 -.5.65-.5 1.55 0 2.21Zm1.19-.91c-.09-.12-.09-.28-.01-.4 .19-.26.19-.26.36-.48 .07-.1.07-.1.12-.16 .02-.03.02-.03.03-.05 0-.01 0-.01 0-.01 -.01 0-.01 0-.01 0 -.01 0-.01 0-.02.01 -.01 0-.01 0-.02.01l-.08.07c-1.24.35.13.45.26-.48l.11-.87c.01-.15.13-.26.27-.28l.86-.12c.92-.13.83-1.5-.1-1.5h-.01v.75l.45.59 .69-.53c.11-.09.27-.09.39-.01l.69.53c.1.07.22.13.35.14l.86.11c.14.01.25.13.27.27l.11.86c.01.12.06.25.14.35l.53.69c.08.11.08.27 0 .39 -.2.25-.2.25-.37.47 -.08.09-.08.09-.13.15 -.03.02-.03.02-.04.04 -.01 0-.01 0-.01 0 0-.01 0-.01 0-.01 0-.01 0-.01.01-.02 0-.01 0-.01.01-.02l.07-.08c1.23-.36-.14-.46-.27.47l-.12.86c-.02.14-.14.25-.28.27l-.87.11c-.93.12-.84 1.49.09 1.49h0v-.75l-.46-.6 -.7.53c-.12.08-.28.08-.4 0l-.7-.54c-.11-.08-.23-.14-.36-.15l-.87-.12c-.15-.02-.26-.14-.28-.28l-.12-.87c-.02-.13-.07-.26-.15-.36l-.54-.7Z"></path></g><path fill="none" d="M0 0h24v24H0Z"></path></svg> 