<?xml version="1.0" encoding="UTF-8"?> <svg xmlns="http://www.w3.org/2000/svg" viewBox="0 0 24 24"><path fill="none" d="M0 0h24v24H0V0Z"></path><g fill="#5F6C59"><path d="M9.975 6.452c0-1.12.9-2.03 2.02-2.03 1.11 0 2.02.9 2.02 2.02 0 1.11-.91 2.02-2.03 2.02 -1.12-.01-2.03-.91-2.03-2.03Zm-1.5 0c0 1.94 1.57 3.52 3.52 3.52 1.94 0 3.52-1.58 3.52-3.53 0-1.95-1.58-3.53-3.53-3.53 -1.95 0-3.53 1.57-3.53 3.52Z"></path><path d="M3.25 17.54c0-1.12.9-2.03 2.02-2.03 1.11 0 2.02.9 2.02 2.02 -.01 1.11-.91 2.02-2.03 2.02 -1.12 0-2.03-.91-2.03-2.03Zm-1.5 0c0 1.94 1.57 3.52 3.52 3.52 1.94 0 3.52-1.58 3.52-3.53 0-1.95-1.58-3.53-3.53-3.53 -1.95 0-3.53 1.57-3.53 3.52Z"></path><path d="M16.701 17.54c0-1.12.9-2.03 2.02-2.03 1.11 0 2.02.9 2.02 2.02 0 1.11-.91 2.02-2.03 2.02 -1.12 0-2.03-.91-2.03-2.03Zm-1.5 0c0 1.94 1.57 3.52 3.52 3.52 1.94 0 3.52-1.58 3.52-3.53 0-1.95-1.58-3.53-3.53-3.53 -1.95 0-3.53 1.57-3.53 3.52Z"></path><path d="M7.85 11.51l-2.01 3.14c-.23.34-.13.81.22 1.03 .34.22.81.12 1.03-.23l2.01-3.14c.22-.35.12-.82-.23-1.04 -.35-.23-.82-.13-1.04.22Z"></path><path d="M12.86 9.18l2.01 3.14c.22.34.68.45 1.03.22 .34-.23.45-.69.22-1.04l-2.01-3.14c-.23-.35-.69-.46-1.04-.23 -.35.22-.46.68-.23 1.03Z"></path><path d="M15.95 16.8H12c-.42 0-.75.33-.75.75 0 .41.33.75.75.75h3.95c.41 0 .75-.34.75-.75 0-.42-.34-.75-.75-.75Z"></path></g></svg> 